<?xml version="1.0" encoding="UTF-8"?>
<svg width="600" height="220" viewBox="0 0 600 220" version="1.1" xmlns="http://www.w3.org/2000/svg">
  <g fill="none" fill-rule="evenodd">
    <!-- Logo components -->
    <g transform="translate(0, 0)" fill="#FFFFFF">
      <!-- Letter O -->
      <circle cx="50" cy="70" r="50" />

      <!-- Letter D -->
      <rect x="120" y="20" width="40" height="100" />
      <path d="M160,20 C190,20 210,45 210,70 C210,95 190,120 160,120 L160,20 Z" />

      <!-- Second D -->
      <rect x="230" y="20" width="40" height="100" />
      <path d="M270,20 C300,20 320,45 320,70 C320,95 300,120 270,120 L270,20 Z" />

      <!-- Letter i -->
      <rect x="350" y="20" width="24" height="100" />
      <circle cx="362" cy="0" r="12" />

      <!-- Letter a -->
      <path d="M400,45 L400,120 L425,120 L425,45 C425,30 445,30 450,45 L450,120 L475,120 L475,45 C475,10 400,10 400,45 Z" />

      <!-- Letter n -->
      <rect x="500" y="45" width="24" height="75" />
      <path d="M524,45 C550,45 550,70 550,70 L550,120 L575,120 L575,70 C575,10 500,10 500,45 L500,45 Z" />

      <!-- Letter t -->
      <rect x="600" y="20" width="24" height="100" />
      <rect x="582" y="55" width="60" height="20" />

      <!-- Dot after name -->
      <circle cx="640" cy="120" r="12" />
    </g>

    <!-- TECHLABS text -->
    <text x="300" y="200" font-family="Arial, sans-serif" font-weight="bold" font-size="60" letter-spacing="2" text-anchor="middle" fill="#FFFFFF">TECHLABS</text>
  </g>
</svg>
